<?xml version="1.0" encoding="UTF-8"?>
<svg id="State service flag of Hesse" width="500" height="300" version="1.1" xmlns="http://www.w3.org/2000/svg">
 <rect id="rect2" width="500" height="150" fill="#E10000"/>
 <rect id="rect4" y="150" width="500" height="150" fill="#FFFFFF"/>
 <g id="g132" transform="matrix(1.00327 0 0 1.00327 -.81809 -.490613)">
  <path id="path6" d="m189.39 89.1191c0.78613 0.377929 2.49023 1.2334 2.49023 1.74414 0 0.326172-0.64258 1.03809-2.58301 1.03809-1.67773 0-2.42968-0.518555-2.42968-1.03809 0-0.580078 1.12548-1.13574 2.52246-1.74414m4.73095-2.23438c1.10645-0.634766 2.42041-1.50098 3.85743-2.94141 1.52002 1.48926 2.79834 2.33594 3.85253 2.94141 0 0 0.13331 0.07324 0.30127 0.168945-1.84033 0.833984-3.13525 1.67285-4.07275 2.62891-0.9458-0.969726-2.27002-1.81934-4.16894-2.6748 0.0713-0.04004 0.23046-0.123046 0.23046-0.123046zm12.5913 2.3877c0.92041 0.419922 2.37354 1.11426 2.37354 1.59082 0 0.309571 0 1.04297-2.43994 1.04297-2.43555 0-2.43555-0.733398-2.43555-1.04297 0-0.46582 1.44336-1.125 2.50195-1.59082zm4.74805-2.28516c1.04394-0.59668 2.52685-1.55957 3.85693-3.01856 1.32862 1.45898 2.81836 2.42188 3.85254 3.01856 0 0 0.17188 0.0957 0.3833 0.210937-1.95508 0.924805-3.34619 1.89453-4.31836 2.99512-1.00927-1.05664-2.43017-2.04688-4.23486-2.9541 0.21436-0.116211 0.46045-0.251953 0.46045-0.251953zm12.4658 2.28516c1.05908 0.46582 2.50293 1.125 2.50293 1.59082 0 0.283203 0 1.03809-2.40576 1.03809-2.40332 0-2.40332-0.754883-2.40332-1.03809 0-0.510742 1.36621-1.16113 2.30615-1.59082zm4.94189-2.3877c1.05567-0.605469 2.33887-1.45215 3.86329-2.94727 1.29394 1.24805 2.4663 2.14941 3.8457 2.94727 0 0 0.12402 0.0625 0.27148 0.145507-1.89795 0.863282-3.22217 1.72266-4.16797 2.71387-0.92187-0.979493-2.23681-1.83301-4.1333-2.68555 0.12696-0.07129 0.3208-0.173828 0.3208-0.173828zm12.561 2.37109c0.97559 0.44629 2.40918 1.12695 2.40918 1.60742 0 0.865235-1.35108 1.04297-2.47754 1.04297-1.13037 0-2.46973-0.177734-2.46973-1.04297 0-0.470703 1.40625-1.11426 2.53809-1.60742zm4.71142-2.26855c1.03907-0.59668 2.52881-1.55957 3.8584-3.01856 1.32862 1.45508 2.8169 2.42188 3.8501 3.01856 0 0 0.15039 0.08008 0.33789 0.179687-1.96875 0.929688-3.38086 1.90527-4.35742 3-1.01855-1.0791-2.39502-2.0625-4.11816-2.94922 0.20117-0.102539 0.42919-0.230468 0.42919-0.230468zm12.4097 2.26465c1.13282 0.49707 2.55664 1.14062 2.55664 1.61133 0 0.34375 0 1.04297-2.45898 1.04297-2.45899 0-2.45899-0.699219-2.45899-1.04297 0-0.515625 1.4004-1.17578 2.36133-1.61133zm4.89258-2.36719c1.05274-0.605469 2.33008-1.45215 3.85547-2.94727 1.29687 1.24805 2.4668 2.14941 3.85937 2.94727 0 0 0.16797 0.09375 0.26954 0.145507-1.8711 0.84375-3.18164 1.69141-4.11719 2.65723-0.93164-0.96582-2.2461-1.80957-4.13867-2.65723 0.0996-0.05176 0.27148-0.145507 0.27148-0.145507zm12.5586 2.37109c0.97657 0.44629 2.4043 1.12695 2.4043 1.60742 0 0.69336-0.83594 1.04297-2.4707 1.04297-1.64258 0-2.47656-0.349609-2.47656-1.04297 0-0.470703 1.41406-1.11426 2.54296-1.60742zm4.7129-2.26855c1.0371-0.59668 2.52148-1.55957 3.85156-3.01856 1.33008 1.45898 2.81836 2.42188 3.85742 3.01856 0 0 0.23828 0.130859 0.51367 0.280273-1.88086 0.951172-3.33594 1.99902-4.34765 3.11523-1.03321-1.16211-2.47657-2.21973-4.31055-3.16504 0.19922-0.102539 0.43555-0.230468 0.43555-0.230468zm12.5176 2.31152c1.04102 0.455078 2.44336 1.09863 2.44336 1.56445 0 0.258789 0 1.03418-2.38476 1.03418-2.38086 0-2.38086-0.775391-2.38086-1.03418 0-0.470703 1.42187-1.15039 2.32226-1.56445zm4.92969-2.41406c1.05664-0.605469 2.33399-1.45215 3.85938-2.94141 1.4414 1.44043 2.75781 2.30664 3.85937 2.94141 0 0 0.0937 0.0498 0.23047 0.123046-1.92578 0.861329-3.25586 1.72363-4.20313 2.70508-0.91992-0.959961-2.21875-1.80176-4.08203-2.6416 0.13282-0.07813 0.33594-0.186523 0.33594-0.186523zm12.4492 2.23438c1.39453 0.608398 2.51953 1.16406 2.51953 1.74414 0 0.30957 0 1.03809-2.42969 1.03809-1.18164 0-2.58984-0.177734-2.58984-1.03809 0-0.510742 1.71094-1.36621 2.5-1.74414zm13.6074-27.6328c-1.40234-0.152344-2.6582 0.790039-3.42187 1.9082-0.37696-0.234375-0.75196-0.40918-1-0.473633-0.3086-0.08203-0.82618-0.220703-1.22657 0.121094-0.33203 0.283203-0.47461 0.772461-0.47461 1.83789 0 0.358398 0.0195 0.814453 0.0527 1.32031-0.29297-0.113281-0.5957-0.213867-0.83789-0.27539-0.39649-0.109375-0.85938-0.191407-1.21094 0.02441-0.31641 0.189453-0.42773 0.509765-0.50586 0.797851-0.23437 0.921875 0.17188 1.79395 0.53516 2.56641 0.30859 0.658203 0.59375 1.2832 0.46679 1.81836-0.043 0.161133-0.2246 0.665039-0.91796 0.482422-0.625-0.171875-0.91797-0.682617-1.22266-1.22656l-0.0996-0.180665c-0.49219-0.839843-1.55469-1.96387-2.95703-2.33398-0.69727-0.182617-1.22852-0.299805-1.67188-0.03027-0.47656 0.286132-0.66992 0.915039-0.9082 1.84082-0.13672 0.557617-0.20898 1.1748-0.20898 1.81348 0 1.56641 0.42187 3.28516 1.15625 4.67871-0.73243 1-1.24219 2.11035-1.40625 2.76953-0.10938 0.425781-0.16797 0.776367-0.16797 1.07031 0 0.842774 0.47461 1.23047 1.65234 1.5459 1.69727 0.450195 3.39063-0.231446 4.76172-0.78125 0.78516-0.320313 1.5332-0.618164 1.9043-0.518555 0.40039 0.102539 0.40039 0.102539 0.40039 0.507812 0 1.47949-2.40821 3.18066-6.42774 4.57422-3.08007-1.12012-5.84765-2.87012-7.22265-4.46875 0.875-0.460937 1.46679-1.38965 1.46679-2.46387 0-1.52441-1.20703-2.76367-2.70507-2.76367-1.4961 0-2.70704 1.23926-2.70704 2.76367 0 1.06445 0.58204 1.98633 1.43946 2.44727-1.41602 1.62109-4.22656 3.39551-7.32031 4.53125-4.09766-1.40332-6.54883-3.125-6.54883-4.62012 0-0.146484 0.041-0.629882 0.57031-0.629882 0.38477 0 1.03711 0.483398 1.7207 0.996093 1.1836 0.88086 2.65235 1.9834 4.40821 1.9834 1.63867 0 2.08203-0.464844 2.08203-2.14941 0-0.674805-0.21485-1.88281-0.66407-3.0332 1.48438-1.64062 2.50586-4.0752 2.50586-6.04688 0-1.93164-0.23828-2.42188-2.04492-2.42188-1.45508 0-2.75781 0.810547-3.4375 1.49902l-0.13281 0.150391c-0.4375 0.444336-0.84375 0.874023-1.49219 0.874023-0.71289 0-0.76953-0.540039-0.76953-0.708984 0-0.550782 0.43359-1.08008 0.89649-1.63867 0.54492-0.651368 1.15429-1.39453 1.15429-2.34473 0-1.08594-0.70508-1.23926-1.45508-1.23926-0.25195 0-0.57031 0.01465-0.87695 0.05566 0.37695-1.17676 0.56641-1.94141 0.56641-2.44629 0-0.3125-0.0723-0.539062-0.18946-0.71875-0.30859-0.435547-0.84961-0.435547-1.16992-0.435547-0.24609 0-0.66992 0.07227-1.10156 0.208985-0.44922-1.08789-1.51367-2.31445-2.74414-2.71875l-0.14453-0.04297-0.14453 0.04297c-1.22657 0.404297-2.29297 1.63086-2.74219 2.71875-0.43164-0.136719-0.85156-0.208985-1.09766-0.208985-0.32812 0-0.85937 0-1.16992 0.435547-0.11914 0.179688-0.1875 0.40625-0.1875 0.71875 0 0.504883 0.18359 1.26953 0.5625 2.44629-0.3125-0.04102-0.62305-0.05566-0.87305-0.05566-0.75195 0-1.45507 0.153321-1.45507 1.23926 0 0.950195 0.60937 1.69336 1.15039 2.34473 0.46289 0.558593 0.89453 1.08789 0.89453 1.63867 0 0.168945-0.0566 0.708984-0.76563 0.708984-0.64648 0-1.06054-0.429687-1.48633-0.874023l-0.14062-0.150391c-0.67969-0.688477-1.98438-1.49902-3.4375-1.49902-1.80469 0-2.04688 0.490234-2.04688 2.42188 0 1.97168 1.0254 4.40625 2.51368 6.04688-0.45508 1.15039-0.67188 2.3584-0.67188 3.0332 0 1.68457 0.44727 2.14941 2.08399 2.14941 1.7539 0 3.22851-1.10254 4.41015-1.9834 0.68555-0.512695 1.33594-0.996093 1.7168-0.996093 0.5332 0 0.57031 0.483398 0.57031 0.629882 0 1.48438-2.41406 3.19043-6.45898 4.58984-3.03711-1.10547-5.85547-2.88574-7.24805-4.48926 0.86914-0.461914 1.46289-1.38965 1.46289-2.45898 0-1.52441-1.21289-2.76367-2.70703-2.76367-1.49219 0-2.71094 1.23926-2.71094 2.76367 0 1.06445 0.58985 1.98633 1.45508 2.45312-1.4082 1.63086-4.19531 3.38965-7.25391 4.49512-4.05859-1.39551-6.47851-3.10547-6.47851-4.58984 0-0.146484 0.041-0.629882 0.57812-0.629882 0.37891 0 1.0293 0.483398 1.71289 0.996093 1.1836 0.88086 2.65625 1.9834 4.41016 1.9834 1.64258 0 2.08789-0.464844 2.08789-2.14941 0-0.674805-0.21484-1.88281-0.67383-3.0332 1.48633-1.64062 2.51563-4.0752 2.51563-6.04688 0-1.93164-0.24024-2.42188-2.04492-2.42188-1.45508 0-2.75782 0.810547-3.43946 1.49902l-0.13867 0.150391c-0.43164 0.444335-0.84375 0.874023-1.49414 0.874023-0.71094 0-0.76562-0.540039-0.76562-0.708984 0-0.550782 0.43945-1.08008 0.89843-1.63867 0.53711-0.651368 1.15235-1.39453 1.15235-2.34473 0-1.08594-0.70118-1.23926-1.45508-1.23926-0.25391 0-0.5625 0.01465-0.87305 0.05566 0.375-1.17676 0.5625-1.94141 0.5625-2.44629 0-0.3125-0.0684-0.539062-0.20117-0.71875-0.29492-0.435547-0.83789-0.435547-1.1543-0.435547-0.24609 0-0.66992 0.07227-1.09961 0.208985-0.44922-1.08789-1.51367-2.31445-2.75195-2.71875l-0.13721-0.04297-0.1455 0.04297c-1.23194 0.404297-2.28956 1.63086-2.75049 2.71875-0.42969-0.136719-0.84522-0.208985-1.09961-0.208985-0.31738 0-0.85498 0-1.15625 0.435547-0.12256 0.179688-0.2002 0.40625-0.2002 0.71875 0 0.504883 0.18994 1.26953 0.57373 2.44629-0.31738-0.04102-0.63086-0.05566-0.87549-0.05566-0.7622 0-1.46435 0.153321-1.46435 1.23926 0 0.950195 0.61426 1.69336 1.15283 2.34473 0.46094 0.558593 0.90527 1.08789 0.90527 1.63867 0 0.168945-0.0615 0.708984-0.77099 0.708984-0.65283 0-1.06104-0.429688-1.49219-0.874023l-0.13672-0.150391c-0.68164-0.688477-1.98926-1.49902-3.43359-1.49902-1.8042 0-2.05029 0.490234-2.05029 2.42188 0 1.97168 1.02392 4.40625 2.51123 6.04688-0.44971 1.15039-0.66993 2.3584-0.66993 3.0332 0 1.68457 0.45069 2.14941 2.08204 2.14941 1.75439 0 3.22998-1.10254 4.4165-1.9834 0.68359-0.512695 1.33398-0.996093 1.71826-0.996093 0.52686 0 0.56787 0.483398 0.56787 0.629882 0 1.48438-2.41455 3.19043-6.4624 4.58984-3.03809-1.10547-5.85254-2.88574-7.24854-4.48926 0.86329-0.461914 1.46241-1.38965 1.46241-2.45898 0-1.52441-1.21729-2.76367-2.70557-2.76367-1.49561 0-2.71191 1.23926-2.71191 2.76367 0 1.06445 0.59179 1.98633 1.45654 2.45312-1.42188 1.63867-4.23047 3.41016-7.30908 4.51465-4.08887-1.39551-6.53223-3.11426-6.53223-4.60938 0-0.146484 0.0444-0.629882 0.57764-0.629882 0.37842 0 1.02685 0.483398 1.71191 0.996093 1.18262 0.88086 2.65625 1.9834 4.41065 1.9834 1.64306 0 2.08789-0.464844 2.08789-2.14941 0-0.674805-0.21973-1.88281-0.66993-3.0332 1.48291-1.64062 2.51124-4.0752 2.51124-6.04688 0-1.93164-0.2461-2.42188-2.05274-2.42188-1.44726 0-2.75635 0.810546-3.4331 1.49902l-0.13624 0.150391c-0.43457 0.444335-0.83837 0.874023-1.48925 0.874023-0.71582 0-0.76758-0.540039-0.76758-0.708984 0-0.550782 0.43457-1.08008 0.89502-1.63867 0.54443-0.651368 1.15234-1.39453 1.15234-2.34473 0-1.08594-0.70117-1.23926-1.45703-1.23926-0.24707 0-0.56494 0.01465-0.87598 0.05566 0.37745-1.17676 0.56836-1.94141 0.56836-2.44629 0-0.3125-0.0674-0.539062-0.19922-0.71875-0.29736-0.435547-0.83544-0.435547-1.15673-0.435547-0.24463 0-0.6709 0.07227-1.09961 0.208985-0.45459-1.08789-1.51416-2.31445-2.75196-2.71875l-0.13867-0.04297-0.14551 0.04297c-1.22705 0.404297-2.29003 1.63086-2.7456 2.71875-0.42969-0.136719-0.8501-0.208985-1.09473-0.208985-0.32617 0-0.85888 0-1.16699 0.435547-0.12646 0.179688-0.19336 0.40625-0.19336 0.71875 0 0.504883 0.18408 1.26953 0.56787 2.44629-0.31347-0.04102-0.62988-0.05566-0.875-0.05566-0.76172 0-1.46338 0.153321-1.46338 1.23926 0 0.950195 0.6128 1.69336 1.15576 2.34473 0.46094 0.558593 0.90186 1.08789 0.90186 1.63867 0 0.168945-0.063 0.708984-0.77197 0.708984-0.65088 0-1.06153-0.429688-1.49024-0.874023l-0.13916-0.150391c-0.6748-0.688477-1.98291-1.49902-3.43261-1.49902-1.80469 0-2.04541 0.490234-2.04541 2.42188 0 1.97168 1.02441 4.40625 2.50634 6.04688-0.45019 1.15039-0.67138 2.3584-0.67138 3.0332 0 1.68457 0.45166 2.14941 2.08886 2.14941 1.75391 0 3.22364-1.10254 4.40967-1.9834 0.68457-0.512695 1.33447-0.996093 1.71875-0.996093 0.52735 0 0.56787 0.483398 0.56787 0.629882 0 1.48828-2.42529 3.19922-6.4873 4.59863-3.07373-1.13574-5.86328-2.90039-7.27393-4.50976 0.85889-0.466797 1.44727-1.38281 1.44727-2.44727 0-1.52441-1.21875-2.76367-2.71045-2.76367-1.48926 0-2.70654 1.23926-2.70654 2.76367 0 1.07422 0.59716 2.00293 1.47314 2.46387-1.37598 1.59863-4.14551 3.34863-7.22412 4.46875-4.02539-1.39355-6.42529-3.09473-6.42529-4.57422 0-0.405273 0-0.405273 0.39892-0.507812 0.36865-0.09961 1.11524 0.198242 1.90723 0.518555 1.3623 0.549804 3.06055 1.23144 4.75928 0.78125 0.72607-0.19629 1.22802-0.403321 1.48779-0.856446 0.11816-0.206054 0.16846-0.43457 0.16846-0.694336 0-0.298828-0.0645-0.65039-0.17334-1.06543-0.16407-0.653321-0.67969-1.76953-1.40186-2.76953 0.73193-1.39355 1.14697-3.1123 1.14697-4.67871 0-0.638672-0.0669-1.25586-0.21045-1.81348-0.23437-0.925781-0.42431-1.55469-0.90527-1.84082-0.43896-0.269532-0.96631-0.152344-1.67236 0.03027-1.40235 0.370117-2.46729 1.49414-2.94678 2.33398l-0.10693 0.180665c-0.30323 0.543945-0.59424 1.05469-1.21875 1.22656-0.68897 0.182617-0.87452-0.321289-0.91455-0.482422-0.13819-0.535156 0.14746-1.16016 0.45898-1.81836 0.3584-0.772461 0.76855-1.64453 0.53174-2.56641-0.0713-0.288086-0.18945-0.608398-0.49463-0.797851-0.36377-0.215821-0.8208-0.133789-1.22315-0.02441-0.24023 0.06152-0.53271 0.162109-0.8291 0.27539 0.0312-0.505859 0.0552-0.961914 0.0552-1.32031 0-1.06543-0.14746-1.55469-0.47412-1.83789-0.40528-0.341797-0.92676-0.203125-1.2334-0.121094-0.24463 0.06445-0.62305 0.239258-1.00147 0.473633-0.75341-1.11816-2.02294-2.06055-3.41992-1.9082l-0.53564 0.05957s4.28222 16.7246 4.30762 16.8252c0.0103 4.61426 1.0166 6.41113 4.65429 8.30176 0 0 0.44678 0.219727 0.89649 0.442383-1.62354 0.857422-3.05957 2.08301-3.05957 4.30664 0 2.12012 1.35498 3.79102 3.27343 4.22949 0.26661 10.7988 1.87403 77.4731 1.87403 77.481 0 19.1436 6.4707 36.374 18.2124 48.5293 11.4541 11.8457 27.3018 18.376 44.6362 18.376 17.3272 0 33.1787-6.53028 44.6299-18.376 11.7441-12.1553 18.2168-29.3857 18.2168-48.54 0 0 1.71875-70.8726 1.87695-77.4966 1.87891-0.462891 3.18555-2.11426 3.18555-4.20312 0-2.22363-1.43359-3.44922-3.05273-4.30664 0.44335-0.222656 0.89453-0.442383 0.89453-0.442383 3.64062-1.89062 4.64257-3.6875 4.65429-8.30176 0.0274-0.100586 4.31055-16.8252 4.31055-16.8252z" fill="#231f20"/>
  <g fill="#00529f">
   <path id="path8" d="m290.759 161.426-2.28711-1.33984c-4.78906-2.94727-11.9004-12.3296-11.9004-19.231 0-0.41504 0.0176-0.82715 0.0371-1.22559h-4.74024c-0.34375 1.18555-0.95312 2.6543-1.91015 3.9209-0.5586 0.73731-1.27344 2.63281-1.27344 5.1377 0 0.40429 0.0234 0.81933 0.0625 1.25293l0.0781 0.83252-0.80859 0.18261c-1.16797 0.25684-2.44922 0-3.51172-0.45752 0.0254 1.28077 0.61524 2.68994 1.08594 3.30616l0.42969 0.56933-0.41993 0.58496c-0.36328 0.50196-0.83398 0.94531-1.375 1.31446 1.00586 1.10449 1.98243 1.98339 2.86914 2.57519 2.25977 1.49121 4.67383 2.87305 7.01368 4.19922 6.93554 3.94238 13.4922 7.67383 13.4922 13.6104 0 1.04883-0.20507 1.95606-0.58007 2.69238 0.9375 0.5586 1.88086 0.79102 3.30273 0.79102 5.20898 0 8.99414-3.89063 8.99414-9.25098 0-4.58593-4.34961-7.0625-8.55859-9.46484"/>
   <path id="path10" d="m249.926 119.154c-0.21045-0.45996-0.64307-1.06055-1.03223-1.42481-0.8706-0.82324-1.94482-1.26269-2.72217-1.43554-0.13818 0.72656-0.47558 1.53418-1.07421 2.23144-0.292 0.35059-0.51709 0.72168-0.75245 0.89551 0.92627-0.2207 1.93409-0.38867 2.98243-0.38867 0.87109 0 1.80615 0.0478 2.59863 0.12207"/>
   <path id="path12" d="m304.884 168.629c0.0762 0.80372 0.16601 1.75977 0.16601 2.82422 0 1.83887-0.27148 3.98828-1.32031 6.15821 0.9668-0.0937 1.92773 0.0742 2.77344 0.55273l1.19336 0.67578-1.06055 0.88965c-1.34961 1.13574-2.08984 2.10352-2.87109 3.12988l-0.61524 0.78809c-1.21875 1.53613-2.80078 2.22266-5.09179 2.22266-0.85547 0-1.70508-0.30957-2.4629-0.86133-1.42968 0.95605-3.62304 1.52636-5.99023 1.52636-3.08594 0-5.78125-0.91113-7.11133-1.44921-2.71094 1.38574-4.04101 3.29882-4.04101 5.83691 0 2.96582 2.41406 5.85449 4.96679 6.06738 0.97852-0.86816 2.42969-1.40722 3.96485-1.40722 2.91797 0 5.28515 2.6289 5.28515 5.86718 0 1.41504-0.25586 2.43164-0.5039 3.41895-0.24414 0.98144-0.47461 1.91406-0.47461 3.27441 0 0.93555 0.58398 1.53418 0.84375 1.75879l0.60351 0.5166-0.39843 0.69336c-0.84571 1.45996-2.85938 1.98731-5.2793 1.48828-0.20508 0.99512-0.60547 1.63086-1.39258 2.28614l-0.3418 0.28418-0.43359-0.0918c-0.73242-0.14355-1.3418-0.50977-1.79687-1.05566-0.78907 1.30371-1.91602 2.69824-3.17579 3.75781 0.54688 0.58301 0.88086 1.26855 0.88086 1.99023 0 0.49903-0.1289 1.01563-0.34765 1.43848 0.52734 0.63379 0.79883 1.30762 0.79883 2.02539 0 1.72168-2.00196 3.86621-3.3125 3.9668l-0.64258 0.0469-0.25977-0.55566c-0.58008-1.16602-1.12305-1.65625-1.53711-1.85059-0.67383 0.22949-1.61133 0.2041-2.61914-0.54394-0.39844 0.76953-1.01562 1.48339-1.73047 1.93359 0.0156 0.0986 0.0371 0.2041 0.0371 0.3125 0 0.62012-0.17578 1.28418-0.51367 1.92871-0.48633 0.91699-1.27344 1.71875-2.31055 2.0918-0.50195 1.44238-1.41797 2.83887-2.83984 3.63281l-1.25781 0.69727-0.11133-1.45996c-0.0625-0.83692-0.33789-2.00098-1.03125-3.26368-0.61133-0.23632-1.23047-0.70996-1.62695-1.19238-1.03321 0.62598-2.16797 0.85156-3.45899 0.65039-0.70312 0.28125-1.4668 0.91992-2.49609 2.26172l-0.48438 0.63281-0.6914-0.38672c-0.9961-0.55859-1.68555-1.88867-1.68555-3.23535 0-1.54394 0.44141-2.71191 1.60937-3.39062-0.0254-0.15918-0.0547-0.50293-0.0547-0.59864 0-1.33593 0.5-2.37402 1.55859-3.2207-0.39258-0.4541-0.68164-0.96387-0.83008-1.5166-0.52539 0.11719-0.97461 0.37598-1.34961 0.77832l-1.34375 1.44824-0.25-1.98047c-0.26367-2.02441 0.0723-3.64746 0.96485-4.68847 0.6875-0.79785 1.67383-1.20996 2.84961-1.20996 1.15234 0 1.84179 0.34179 2.27929 0.67578 0.42188-0.13086 0.85547-0.19629 1.2793-0.19629 1.0293 0 1.66406 0.36426 2.17578 0.65332 0.49219 0.28125 0.875 0.50781 1.73047 0.50781 1.07031 0 3.65039-1.05273 5.77539-3.32519 1.02344-1.08985 2.16406-2.73243 2.62695-4.89844-0.30468 0.44922-0.62304 0.96387-0.96484 1.63086l-0.36328 0.68945-0.73047-0.23535c-1.54687-0.48535-2.7207-1.93457-3.28516-3.85742-0.47656 0.38965-1.08593 0.71972-1.93945 0.97461l-1.18555 0.33691v-1.25684c0-2.60839-0.41992-3.05078-2.75586-5.51757l-1.08398-1.15723c-3.59961-3.85742-4.31641-7.0791-4.31641-11.0293 0-0.39746 0.0215-0.8125 0.0625-1.22851-0.53711-0.0186-1.02148-0.0312-1.42773-0.0312-2.85352 0-4.60889 2.65234-4.60889 4.55566 0 0.74512 0.21387 1.14258 0.5376 1.73633 0.50147 0.95703 1.13574 2.13965 1.13574 4.87109 0 5.17774-3.14648 8.06836-6.2251 10.2109l-1.35205 0.94238-0.10937-1.71191c-0.04-0.56934-0.0698-1.04883-0.16309-1.48145-0.93554 1.00879-2.09082 1.85645-3.22656 2.2959l-0.77637 0.30371s-0.61474-1.21679-0.84961-1.6875c-2.00244 1.15528-4.7041 2.16895-6.40283 2.68946 0.0161 0.13379 0.0376 0.27734 0.0376 0.41601 0 1.28223-0.65576 2.42676-1.06445 2.99317l6e-3 0.0967c0 2.00879-1.8833 3.23242-3.74659 3.3916l-1.37548 0.11914 0.4038-1.34375c0.32569-1.06152-0.61377-1.63281-0.61377-1.63281-0.97265-0.41797-2.02148-1.21973-2.49658-2.17579-0.36767 0.13379-0.75732 0.23536-1.14599 0.292-0.0259 1.64257-0.57813 2.69336-1.08936 3.31347-0.6709 0.81543-1.71777 1.37793-2.82812 1.55469-0.45215 0.90625-0.97803 1.65332-1.72998 2.27734l-0.48145 0.39747-0.5459-0.29102c-1.0664-0.57715-2.47363-2.10449-2.52392-3.55859l-8e-3 -0.19434c-0.51709-0.37988-0.94288-1.03418-1.11768-1.67676-0.0811-0.28222-0.11719-0.59082-0.11719-0.90918 0-0.48047 0.0928-0.99023 0.26221-1.49316-0.11914 0-0.23633 7e-3 -0.36963 7e-3 -0.7251 0-1.37402-0.31347-1.89795-0.8125-0.5459 0.37598-1.10937 0.89942-1.44726 1.56446l-0.63477 1.25488-0.89941-1.07227c-0.6084-0.73046-1.31055-1.79003-1.31055-3.59667 0-2.19532 1.53516-3.88379 3.78076-4.22852 0.77246-0.93164 1.91406-1.49121 2.98731-1.49121 0.43457 0 0.83447 0.0352 1.22265 0.0986-5e-3 -0.01-5e-3 -0.0283-5e-3 -0.042-0.52588-0.21191-1.16553-0.29297-1.9165-0.25l-1.0503 0.0596 0.0669-1.06934c0.11279-1.7373 1.69873-3.69336 3.65722-3.69336 1.32178 0 1.96534 0.35938 2.5835 0.9336 0.32715-0.0606 0.66016-0.0879 0.99756-0.0879 1.55664 0 2.35254 0.6914 2.99853 1.24511 0.51172 0.44239 0.81739 0.70899 1.49024 0.70899 1.36377 0 5.64111-0.94531 7.44629-3.1084-0.51709-0.16894-1.00293-0.41113-1.39551-0.72461l-0.8042-0.63281 0.68555-0.76367c1.10156-1.21289 1.3164-1.8291 1.3164-6.25586 0-3.86231 1.89112-7.49903 5.32373-10.2432 3.45069-2.73925 8.09961-4.25781 13.0947-4.25781l3.09863 0.0674 3.3086 0.0586c0.0644 0 0.51758-0.0391 1.39062-1.06641-6.89306-0.60547-12.8799-2.31348-18.8662-7.66992-0.3623 1.02344-0.99756 1.79394-1.8623 2.22559l-0.45899 0.22558-0.43115-0.27344c-1.45703-0.90918-2.71094-1.59765-4.82812-1.88281-0.29786 1.4668-1.40186 2.85645-2.32276 3.37598l-0.7168 0.39746-0.90576-1.2666c-0.68603-0.95508-1.33984-1.87012-1.92871-2.25-0.27099 0.78027-0.77246 1.46289-1.48193 1.95898l-0.51221 0.35547-0.8916-0.58301c-1.81445-1.18261-3.12451-2.04004-5.87695-2.04004-1.29444 0-2.47119 0.38965-3.17725 0.72461 0.18359 0.4209 0.25684 0.88184 0.27246 1.44141 3e-3 0.0234 3e-3 0.0488 3e-3 0.0703 0 0.94531-0.55273 1.83692-1.03174 2.31641-0.16943 0.17383-0.52734 0.43359-0.7539 0.53222-0.30518 0.9004-0.7461 2.0586-2.26953 3.06055l-0.68067 0.4502-0.52783-0.62305c-0.57275-0.68652-0.91016-1.29102-1.17627-1.90234-0.62354-0.15528-1.49463-0.5918-2.00098-1.15821-0.17773 0.31836-0.34277 0.80274-0.34277 1.47461 0 1.11524-1.02246 2.18067-2.05176 2.53516-0.25635 0.84082-0.37744 1.54199-0.35742 2.00879l0.0454 0.92773-0.9082 0.0635c-0.87647 0.0596-1.8125-0.28809-2.55957-0.95215-0.69727-0.62305-1.11963-1.44336-1.1709-2.24023l-5e-3 -0.26661c-0.78272-0.54687-1.19922-1.51464-1.19922-2.81445 0-0.27539 0.0225-0.57031 0.0566-0.89062-0.14746-0.0488-0.29981-0.10547-0.44922-0.18555-0.0723-0.0508-0.15869-0.11328-0.25586-0.19043-0.58301 0.27051-1.02881 0.78809-1.33008 1.56836l-0.49658 1.28125-1.07373-1.01074c-0.70068-0.65332-1.75928-1.6416-1.75928-3.43555 0-1.32129 0.67969-2.41699 1.89258-3.1084-7e-3 -0.0889-0.0107-0.16699-0.0107-0.25488 0-0.54883 0.13867-1.13184 0.51172-1.6582 0.40429-0.58497 1.01269-0.98536 1.78955-1.22364-0.41309-0.5498-0.72022-1.18359-0.82715-1.88086-0.63086-0.31543-1.32129-0.48047-2.05762-0.48047h-1.39062l0.53125-1.30859c0.55273-1.38184 1.95459-3 4.07129-3 0.43164 0 1.38232 0 2.33398 0.44336 0.20459-0.043 0.41504-0.0742 0.61865-0.0742 0.88965 0 1.60108 0.52344 2.28614 1.01953 0.64599 0.46387 1.25976 0.90332 1.95605 0.90332 0.46338 0 2.36328-0.81152 3.62109-1.34961 1.43799-0.61035 2.917-1.24804 3.91455-1.5039 1.28321-0.32617 3.7544-1.66114 6.85498-3.69825-0.18505-0.32324-0.34912-0.66406-0.49658-1.02343l-0.3584-0.87354 0.85498-0.36719c0.42042-0.17871 0.74659-0.36621 1.01221-0.57324-0.0259-0.76172-0.20996-1.75097-0.7666-2.8789-1.06445 0.98925-2.71191 1.44238-4.07227 1.22265l-1.11523-0.18261 0.38379-1.08594c0.53027-1.47168 0.79883-2.89746 0.79883-4.36524 0-0.83203-0.0942-1.67871-0.26856-2.55468-0.89404 0.76953-2.04052 0.77734-2.56152 0.77734h-0.93555l-6e-3 -0.94629c-0.0268-2.57226-0.48681-5.77344-3.41894-10.0508-0.0908 0.0449-0.19238 0.0889-0.29004 0.12988-0.8916 1.52442-2.54297 2.59278-4.11182 2.59278-1.74121 0-2.96386-1.10645-3.52734-2.14258l-0.61914-1.14258 1.25342-0.25195c0.76806-0.15625 1.34033-0.53125 1.76074-0.93653-0.68506-0.875-1.10547-1.92871-1.21875-2.93945-1.04199-0.22363-1.89258-0.62012-2.54639-1.1582-0.75244 0.41406-1.29443 1.04882-1.61181 1.88281l-0.55811 1.49023-1.01807-1.21484c-0.60888-0.72656-1.30273-1.79004-1.30273-3.59277 0-2.06934 1.4209-3.73536 3.50781-4.17481 0.70703-1.03515 1.9458-1.51855 3.17725-1.51855 0.15967 0 0.29638 0.01 0.45068 0.0185-0.87012-0.55859-1.95019-1.34472-1.95019-2.98926 0-0.41992 0.0991-0.82812 0.26806-1.21484-0.36523-0.19531-0.78467-0.33008-1.26513-0.39453l-0.8042-0.11914v-0.84473c0.0327-1.44043 1.64306-3.57617 3.81884-3.57617 1.62061 0 2.91016 0.82031 3.59131 2.26172 0.42285 0.16406 0.81153 0.4043 1.14014 0.71875 0.38916 0.38574 0.65967 0.86816 0.79785 1.39355-0.0259-0.20898-0.041-0.4248-0.041-0.65039 0-0.0791 0-0.16211 5e-3 -0.24218 0.0161-0.26954 0.0674-0.5293 0.16406-0.76465-0.35352-0.46582-0.87402-1.02051-1.63721-1.49219l-0.7622-0.47754 0.44091-0.7998c0.59229-1.07422 1.90772-1.69727 3.61622-1.69727 1.92236 0 3.5083 1.66602 3.86767 3.32031 0.87891 0.47656 1.5752 1.27539 1.5752 2.42578 0 0.875-0.23536 1.75879-0.44385 2.54004-0.15625 0.58789-0.30322 1.14356-0.31348 1.53809-0.0195 1.3125 1.04492 2.54297 2.64502 4.40234 0.99268 1.14063 2.22022 2.57031 3.50977 4.39649 0.93115 1.32519 6.80957 5.06054 11.0908 7.28222 0.63476-1.35449 1.58105-2.46386 2.4414-3.16406l0.61866-0.49805 0.58252 0.53907c1.34961 1.24414 2.38916 2.1582 5.34228 2.32226v-3.85254h0.92432c0.69238 0 1.39795 0.41797 2.38037 0.99903 1.48779 0.89355 3.5293 2.10351 6.04541 2.10351 1.02978 0 2.76367-0.32617 2.76367-1.55762 0-1.04101-0.45459-1.16601-0.79834-1.16601-0.42383 0-1.12451 1.15137-2.5625 1.15137-1.88769 0-3.57275-1.38282-3.57275-3.06934 0-0.31641 0.0615-0.59668 0.18017-0.84668-0.16992-0.42285-0.19873-0.70996-0.0967-1.09766-1.60498 0.56739-3.85254 1.20997-5.73095 1.20997-3.52979 0-7.33106-1.90723-7.33106-6.0918 0-2.81445 1.91943-4.32715 3.72022-4.32715 0.66406 0 1.26806 0.19922 1.70361 0.55566l0.62402 0.5127-0.50537 0.43945c-0.62158 0.76465-0.88135 1.625-0.88135 2.42969 0 1.33203 1.47364 2.76172 4.70752 2.76172 0.80225 0 1.93262-0.13086 2.96778-0.3457-0.11866-0.19336-0.19043-0.38868-0.23096-0.56446-0.15381-0.0215-0.30322-0.0615-0.44092-0.10547-1.91748-0.68554-3.30859-2.30957-3.30859-4.17578 0-0.49316 0.0752-1.1416 0.34082-1.75976 0 0-0.46973-0.3916-0.46973-1.61231 0-2.51953 4.12403-5.25586 5.74024-6.23926 0.9458-1.89257 4.40673-5.84863 11.4575-5.96191 1.32226-0.891601 2.8457-1.02246 4.05468-1.02246 0.59961 0 1.33008 0.07324 2.13086 0.291993 0.88086-0.583985 1.78321-0.875977 2.62305-0.875977 1.00586 0 2.73437 1.34473 3.10351 3.48632 0.83985 0.51368 2.71094 1.19922 3.74024 1.34278l1.04687 0.13964-0.27148 1.04004c-0.15625 0.59961-0.49609 1.17481-0.93555 1.6836 0.66992 0.41992 1.24414 0.85547 1.79688 1.27246 0.86523 0.66016 1.68945 1.2832 2.83594 1.82812l1.01757 0.47754-0.65234 0.93848c-0.47852 0.68359-0.94531 1.1582-1.41016 1.49805 1.2168 1.41894 1.94336 3.67382 2.17578 4.5 0.55079 1.89062 2.33985 4.12207 3.40821 5.16308l1.02539 0.99317-1.29688 0.57031c-0.80078 0.34961-1.68164 0.58008-2.75586 0.70801 0.12696 0.74804 0.20118 1.66406 0.20118 2.79687 0 2.08399-0.22071 4.8125-0.65821 8.17188-0.0254 0.21484-0.0371 0.41992-0.0371 0.6123 0 1.11817 0.39649 1.98145 0.76172 2.54199l0.95899 1.46582c0.41211-7.86816 4.6914-11.96 7.3164-14.2754-0.0547-0.56054-0.0879-1.10449-0.0879-1.61816 0-7.56543 5.75781-10.2002 8.04297-11.2422l0.25586-0.12207c0.57031-0.26562 1.42578-0.76074 2.18555-1.18945l2.27539-1.27735 0.31445 1.16407c0.19531 0.73828 0.27344 1.43652 0.27344 2.08593 0 0.54395-0.0664 1.04004-0.16797 1.51075 2.61523-1.24317 5.29883-3.34668 6.43555-6.27344l0.91406-2.37402 0.83008 2.40429c0.60351 1.78125 0.84765 3.49024 0.84765 6.09278 0 6.03418-3.73242 13.0508-14.209 14.6318-3.98047 0.60938-6.5293 2.26465-8.24805 5.45899 1.7461-0.98536 3.41016-1.34082 5.3711-1.5l2.95507-0.23536-2.28711 1.91895c-0.0723 0.0557-0.11328 0.11621-0.18554 0.16797 1.42578-0.39258 2.77734-0.41406 4.10351-0.43164 2.22266-0.0293 4.32227-0.0557 6.77149-1.94727l2.11328-1.63476-0.65039 2.62402c-0.9082 3.71191-4.54883 5.03027-8.06055 6.30176-4.19726 1.52539-8.1543 2.96094-8.1543 8.1416 0 2.13672 0.95118 4.05908 2.53321 5.29639-0.043-0.50196-0.0566-0.98828-0.0566-1.47364 0-1.67822 1.78125-4.82275 6.08593-4.82275 1.15625 0 2.29102 0.28125 3.29493 0.5293 0.79297 0.19238 1.53906 0.38183 2.125 0.38183 1.16211 0 1.91601-0.41601 2.60937-1.42968l1.69141-2.51563v3.05469c0 3.20019-2.74414 4.354-4.94727 5.27978-2.23047 0.9375-3.59961 1.59082-3.59961 3.20899 0 2.2334 2.14063 3.90429 4.10157 5.26172 0.44531-1.54004 1.7539-2.81446 3.20312-3.43164l1.2207-0.43067c0.85157-0.25586 1.51368-0.45996 2.50782-1.44238l0.87304-0.87207 0.58985 1.09765c0.48437 0.90821 0.52734 1.74903 0.52734 2.66895 0 1.66797-0.91016 3.0752-1.79687 4.44336-0.89063 1.37891-1.73438 2.69043-1.73438 4.23437 0 0.40039 0.043 0.91114 0.0918 1.49414m-118.559-72.2436 1.86182 76.8911c0 39.4932 27.1646 65.7764 61.8218 65.7764 34.6504 0 61.8184-26.2832 61.8184-65.7764l1.85937-76.8911h-127.362z"/>
   <path id="path14" d="m243.831 123.293c1.52148 0 2.1167 0.24023 3.30273 0.24023 0.81299 0 2.51221-0.043 3.06397-1.23242-1.021-0.20703-2.13868-0.3125-3.33399-0.3125-1.50049 0-2.63965 0.33106-3.66943 0.66504 0.0708 0.29199 0.27099 0.50098 0.4292 0.64453 0.0727 0 0.14013-5e-3 0.20752-5e-3"/>
  </g>
  <g fill="#ffffff">
   <path id="path16" d="m301.376 179.557c3.87305-4.77832 2.4375-9.99121 2.4375-12.3906 0-3.50683 3.53125-5.79296 3.53125-8.6875 0-0.79785-0.0234-1.48339-0.40429-2.21191-1.61133 1.59668-2.58789 1.45605-4.01953 2.06934-1.6211 0.69628-3.13672 2.37597-2.74219 4.26562-2.27734-1.6084-5.85352-3.66113-5.85352-6.97266 0-4.75097 8.55274-3.43945 8.55274-8.49169-0.85352 1.26367-1.88867 1.84472-3.38086 1.84472-1.48242 0-3.44922-0.91113-5.41211-0.91113-3.66602 0-5.1543 2.58935-5.1543 3.8706 0 1.28321 0.0195 2.31348 0.61133 3.36524-2.75-1.00098-4.95508-3.66016-4.95508-7.19092 0-10.4971 14.4551-7.40137 16.252-14.6699-5.10547 3.93848-8.90625 0.51465-13.6465 3.67969 0.23828-1.23438 0.69531-2.03614 1.79688-2.96485-2.97461 0.24024-5.00586 0.92871-7.61524 3.31836 1.97852-6.23144 5.41016-8.4248 10.2852-9.16211 9.12695-1.37793 13.4141-7.2832 13.4141-13.6953 0-2.4043-0.20508-4.03906-0.80273-5.77344-1.46094 3.79297-5.32032 6.41797-8.85157 7.59278 0.64063-1.22168 1.09961-2.95508 0.54883-5.01563-0.73437 0.37109-2.47656 1.45215-3.49023 1.91797-2.13867 1.00293-8.75977 3.65723-7.61328 12.5156-2.74219 2.40333-7.40039 6.51172-7.40039 15.1152 0 6.58691 6.90039 15.6089 11.4492 18.4165 4.55274 2.80762 11.2969 5.52149 11.2969 11.6133 0 5.92188-4.23633 10.2061-9.92774 10.2061-1.90625 0-3.16601-0.35547-4.58203-1.46973 0.61328-0.65527 0.92969-1.69922 0.92969-2.96093 0-7.22559-10.834-11.1533-20.084-17.0234-1.22657-0.77442-2.13282-1.57617-3.17578-2.81934-0.85352 0.48633-2.49415 0.58887-3.81641 0.58887-1.15235 0-2.95508-0.37305-4.79297-1.01953-3.48047 2.85547-8.875 5.69824-16.5137 5.69824-4.02246 0-6.60059-1.48535-10.1675-1.48535-1.79492 0-3.75928 0.4707-5.04297 2.18945-2.06592-0.65527-3.14649-3.91894-2.06592-6.64551-1.89014-0.41797-3.61182-1.26855-5.01123-3.14843-2.07129 1.35254-5.17139 3.35644-7.20752 3.87695-2.02978 0.51367-6.57324 2.87793-7.75976 2.87793-1.83204 0-2.9375-1.9209-4.24073-1.9209-1.55029 0-3.21826 1.84863-3.21826 2.96484 0 1.33204 1.13037 2.54883 2.23975 3.04981-2.84034-0.0918-3.75391 0.76562-3.63623 2.50781 1.60058 0.25586 2.60839 2.41602 2.21435 3.73535 0.12305 0.33692 0.74268 0.67481 1.40186 0.4834-0.20459 0.85938-0.6958 2.68457 0.61035 3.75391 0.50537-0.95703 1.17627-1.28125 2.14258-1.28125 0.95996 0 1.79052 0.91894 2.02099 1.57617 0.63282-0.14356 1.34034-0.75195 1.34034-1.59668 0-1.68066 0.84375-2.80664 1.55957-2.84863 0.23046 1.02929 1.1206 1.36425 1.85205 1.59961-0.11817-1.83301 1.10595-2.41602 1.9082-2.41602 1.26953 0 1.81689 0.55274 2.29883 1.48438 0.73926-0.28125 1.20019-1.09278 1.16552-2.01172-0.0317-0.91504-0.17919-1.29785-0.67578-1.73731 0.38965-0.43847 2.34815-1.40625 4.51758-1.40625 3.2168 0 4.67627 1.09278 6.74854 2.43262 0.6372-0.43848 1.23681-1.18457 1.31299-2.30566 1.41162-0.15821 2.46191 1.58203 3.79687 3.41699 0.82275-0.46289 2.11279-2.11621 1.90771-3.58789 2.8545 0.21582 4.37354 1 6.17969 2.11816 1.19287-0.58398 1.61768-1.96875 1.6836-3.19922 6.48242 6.34278 12.7847 8.12403 20.9702 8.66797 6.24219 0.41602 9.87305 4.0918 10.4102 5.93067-0.97657-0.50586-2.19727-0.76661-3.75586-0.76661-4.08789 0-7.37891 5.00391-7.37891 10.0371 0 3.55957 0.56641 6.61621 4.05078 10.377 3.2461 3.48047 4.10352 3.90722 4.10352 7.31836 1.7832-0.51661 2.26367-1.39649 2.74609-2.56446 0.0254 2.62989 1.21875 4.90235 3.00196 5.46582 0.96679-1.84277 1.7871-2.958 2.9375-3.68945 0.32812 7.48437-6.95899 11.6836-9.55079 11.6836-2.08398 0-2.23046-1.16015-3.91406-1.16015-1.66211 0-3.61328 1.38183-3.61328 3.3164 0 1.20703 0.75977 2.04297 1.58203 2.52442-1.99023 1.04883-2.23242 2.11523-2.08594 3.58203 2.48438-0.5 3.50391 1.83105 3.04688 3.34766 1.53711 0.32617 2.65625-0.39063 3.44726-1.10157 0.2461 0.75293 0.95118 1.46973 1.79297 1.69629 0.53125-0.9209 1.35938-1.59082 2.37305-1.59082 1.02344 0 1.87109 0.39453 2.30078 1.81543 1.15039-0.25 2.52344-2.37988 1.84961-3.84863 1.17188-0.31836 2.3418-1.98926 2.39844-3.14453 0.78125 1.02441 1.80859 1.81543 2.91211 1.31152-0.11328-1.96387 1.54101-3.38477 2.64453-3.38477 0.64062 0 1.16797 0.0918 1.58203 0.30469 0.14258-0.25683 0.25586-0.62207 0.25586-1.01562 0-0.92969-0.7832-1.63184-1.48633-2.01172 2.12305-1.36231 4.15235-4.12988 4.75586-5.92285 0.16797 1.16308 0.76367 2.07422 1.93555 2.31738 0.80273-0.67578 1.08789-1.23438 1.20898-2.72949 2.20313 0.71582 4.46485 0.57226 5.25-0.79883-0.58593-0.49902-1.17773-1.35254-1.17773-2.47559 0-2.90429 0.97851-4.05468 0.97851-6.69726 0-2.70313-1.91601-4.91113-4.3457-4.91113-1.60156 0-2.98437 0.63281-3.6875 1.43457-3.04687 0-6.18359-3.35938-6.18359-7.04883 0-3.51367 2.23828-5.60645 4.92382-6.88574 1.6543 0.71972 4.33985 1.5498 7.16797 1.5498 2.81836 0 4.99024-0.83008 6.01563-1.79785 0.39062 0.40527 1.24805 1.12695 2.42969 1.12695 2.04882 0 3.35547-0.59863 4.3789-1.875 1.01172-1.27734 1.82227-2.54101 3.61524-4.04883-1.41016-0.80468-3.17578-0.5664-4.63282 0.53809"/>
   <path id="path18" d="m218.852 145.393c1.6582-3.26856 4.65381-6.61328 8.03272-7.41699-0.18457-0.94629-0.36866-1.62598-0.36866-3.28418 0-0.63965 0.19434-1.66993 0.37159-2.25977-3.9795-2.06934-10.3784-5.93848-11.5864-7.65723-3.44336-4.89062-6.36865-6.71484-6.32764-9.37695 0.0142-1.10156 0.75098-2.66601 0.75098-4.05469 0-1.38965-1.70166-2.01074-2.78125-2.01074-1.24951 0-2.55908 0.3877-2.62061 1.54395-0.0566 1.15625 0.40381 2.18554 0.56787 2.78222 0.21436 0.80176 0.11231 1.93164-0.0249 2.81836-1.13623-1.24121-2.2417-2.67676-2.2417-3.94433 0-1.29883-1.12646-2.24317-2.4292-2.18457-1.30419 0.0635-3.38134 1.62988-3.38134 3.14843 0 1.32422 0.98681 1.83985 1.89306 2.42579 0.58838 0.38867 1.23682 0.85839 1.61475 2.24609-0.9917-0.5625-1.74902-0.75293-2.93994-0.75293-1.1919 0-2.83496 0.56543-2.83496 2.64453 0 2.6084 1.91797 3.61523 4.07324 3.90332-0.16358 1.91211 1.51367 4.86524 4.48584 4.86524 0.64941 0 1.29932-0.32422 1.58594-0.75489 3.58105 4.87207 4.11963 8.54492 4.13769 11.4111 1.35645 0 2.5752-0.35547 2.83985-2.43067 1.32519 3.86621 1.13574 6.92969 0.0811 9.85254 1.42285 0.23145 3.48975-0.44824 4.00635-2.00977 1.3208 2.21582 1.42871 2.93067 1.46924 4.02735 0.85937-1.18164 0.77099-1.85449 1.62646-3.53125"/>
   <path id="path20" d="m265.558 177.89c-1.93165-2.27149-5.95508-3.51758-8.84961-3.62207-0.01 0 0.0117-0.0215-0.0254 0.0205 3.46093 0.84864 4.9082 2.16602 5.87109 3.47559 1.37891-0.21191 2.55078-0.0781 3.00391 0.12598"/>
   <path id="path22" d="m256.107 175.023c-0.60156 0.68652-1.26953 1.26953-1.88867 1.26953-2.48828 0-4.12402-0.12891-6.40918-0.12891-10.0679 0-17.4883 6.32032-17.4883 13.5508 0 4.42187-0.1875 5.39453-1.56543 6.9082 0.60449 0.47168 1.53613 0.77832 2.32861 0.74609-1.33447 3.61231-7.46484 4.78223-8.94726 4.78223-2.07715 0-2.1333-1.95117-4.48242-1.95117-1.52442 0-3.44629 0.70117-3.44629 2.458 0 0.79883 0.1875 1.67481 0.49023 2.1709-0.84961-0.47265-1.80615-0.58398-2.60498-0.58398-1.41211 0-2.98193 1.31055-2.98193 3.10547 0 1.67285 1.09082 3.38379 2.4082 3.38379 0.76904 0 1.37256-0.0576 2.00244-0.22559-1.18164 1.62109-1.43799 3.09766-0.18506 4.30371 0.24024-0.58984 1.06885-1.52637 2.68506-1.52637 1.20362 0 2.50244 1.14161 2.2002 2.84278 1.32617-0.32031 3.23388-1.40723 2.875-4.75196 1.03955 0 2.14404-0.30273 2.59863-0.81933 0.24658 1.09668 0.90576 2.17969 2.2168 2.6875 0.35644-0.67188 1.30468-1.7334 2.42431-1.7334 1.2334 0 1.81153 0.55176 2.16895 1.125 0.64014-0.88086 1.01758-1.62891 0.47705-3.21582 1.81104-0.46387 5.74414-1.90234 7.85254-3.35742l0.92578 1.8457c1.5083-0.58691 2.95166-1.89844 3.77637-3.18652 0.7417 1.00683 0.79785 1.9834 0.87402 3.23535 2.93164-2.03613 5.82764-4.6875 5.82764-9.4209 0-4.31933-1.67383-4.27832-1.67383-6.61719 0-2.32324 2.11914-5.49707 5.53369-5.49707 0.76563 0 1.10938 9e-3 1.51367 0.0361 0.56836-3.82325 3.04492-7.39258 5.85547-8.417-1.13281-1.40625-3.04492-2.43359-5.36133-3.01855"/>
   <path id="path24" d="m241.185 119.865c0.0503 0.15918 0.15234 0.38379 0.21436 0.46094 0 0 0.77685-0.19726 0.77685-0.20508 0.0151-0.0723 0.0195-0.24414 0.0195-0.34472-0.36767 0.11426-0.70556 0.10351-1.01074 0.0889"/>
   <path id="path26" d="m242.023 123.933c0.2041-0.30078 0.46924-0.44824 0.91406-0.54297-0.1416-0.22461-0.23096-0.37598-0.28711-0.5752 0-4e-3 -0.65283 0.24805-0.65283 0.24121-0.0518 0.20899-0.1084 0.46289 0.0259 0.87696"/>
  </g>
  <g id="g34">
   <g id="g32">
    <g id="g30">
     <path id="path28" d="m273.962 135.005c0.92578-7.15234 0.72071-10.4658 0.19336-11.6953 1.36133-0.0752 2.51758-0.26367 3.57031-0.72559-1.17382-1.14062-3.05273-3.50878-3.65234-5.58789-0.49609-1.71582-1.63867-4.43457-3.04492-4.96386 0.93164-0.29688 1.59961-0.70606 2.4043-1.85059-2.4043-1.13867-3.44141-2.58398-5.85938-3.81055 0.76758-0.44629 1.4375-1.24804 1.66016-2.0791-1.25586-0.16894-2.45703-0.64844-3.64844-1.22851-0.19141 0.94043-0.52539 1.80566-1.53906 2.93066l-0.69336-0.59082c0.63086-0.72949 1.36718-1.87305 1.36718-2.79394 0-1.2793-1.03125-2.53418-1.74023-2.94434-0.76953-0.444336-1.46094-0.375-3.07812 0.725591-0.53907 0.38476-1.79883 1.5371-2.52149 2.1582l-0.50781-0.60352c0.70508-0.68066 1.60351-1.40039 2.03711-1.76953-0.47266-0.0947-0.85352-0.11621-1.15625-0.11621-1.36133 0-2.69141 0.18164-3.75391 1.00977-6.79394 0-10.293 3.86132-11.0303 5.69043-2.60987 1.53808-5.49561 3.88281-5.49561 5.5664 0 0.44434 0.062 0.72559 0.16065 0.92285 0.70019-0.36035 1.37988-0.95703 1.99316-1.50195l0.41504 0.46582c-0.52148 0.5293-1.60107 1.37793-2.05713 1.66992-0.33789 0.44629-0.42285 1.1836-0.42285 1.81739 0 1.87695 1.94775 3.49023 3.96777 3.49023 2.88135 0 3.89893-2.66602 3.73096-3.89355 1.56445-0.12598 6.00586 1.45214 6.00586 6.00292 0 2.83985-3.11523 3.14063-4.20459 3.14063-1.0957 0-1.9043-0.33594-3.11084-0.33594-1.20801 0-1.76465 0.42774-1.76465 1.23926 0 1.10156 1.27246 2.0918 2.6543 2.0918 1.35986 0 1.45898-1.1211 2.54736-1.1211 0.64014 0 1.73047 0.33496 1.73047 2.11621 0 1.76563-1.85254 2.51075-3.69434 2.51075-4.25683 0-7.18261-3.10157-8.42138-3.10157v3.88086c-3.94483 0-5.2544-1.10058-6.89209-2.60351-1.3501 1.09961-2.83252 3.21484-2.83252 5.61035 0 1.66113 0.13672 3.02734 0.47412 3.97851-3.37061 0.4795-6.84473 3.76465-8.49658 7.61133-1.0586 2.44922-1.34522 3.75098-3.51026 4.67432 1.21241 2.99609 3.90918 4.51855 6.46631 4.61426-1.61084 1.83008-0.66992 5.83886 0.51758 6.01465 1.55908-1.43164 3.22315-1.75098 5.01856-1.75098 4.14257 0 6.3789 1.46973 10.3965 1.46973 7.64404 0 12.5171-2.59961 16.2119-5.84571 1.68164 0.80567 4.14258 1.24121 5.28907 1.24121 2.25586 0 4.18554-0.85351 5.16601-2.21289-0.77539-1.02636-1.72656-3.54492-1.05469-5.3833 0.93165 0.75879 2.67188 1.31543 4.01563 1.02246-0.28906-3.12207 0.49805-5.8623 1.4043-7.06152 1.03125-1.37402 1.6875-3.13965 1.92773-4.32031h3.76758c-0.54883-0.83887-1.13086-2.1084-0.91016-3.77442zm-25.4624-25.6064s-0.39893-0.67481-0.81396-1.06446c-0.1792 0.49219-0.89454 1.21192-1.61622 1.21192-1.03857 0-1.69384-0.94336-1.69384-1.79395 0-0.39453 0.19433-1.01855 0.50146-1.36914 1.23877 0.11426 2.8916 0.79981 4.16358 2.58594-3e-3 -7e-3 -0.54102 0.42969-0.54102 0.42969z" fill="#ffffff"/>
    </g>
   </g>
  </g>
  <path id="path36" d="m245.036 107.025m-0.18847 0.78223c0 0.6123 0.43066 1.2666 1.21289 1.2666 0.60254 0 1.11963-0.66602 1.24756-1.01563-0.43116-0.46582-1.34473-1.02636-2.23096-1.11132-0.15918 0.20605-0.22949 0.57714-0.22949 0.86035z" fill="#ffffff"/>
  <path id="path38" d="m250.314 120.002c-0.61279-0.0898-1.33398-0.16211-3.00097-0.16211-2.06299 0-3.9458 0.66114-5.37891 1.08008-1.43652 0.41992-2.23975 0.74317-4.26025 0.74317-3.95655 0-5.5-1.97657-5.5-3.56934 0-1.04688 0.36279-1.8877 1.0581-2.75293-0.32666-0.27051-0.77637-0.38086-1.20801-0.38086-1.36084 0-2.92529 1.1709-2.92529 3.52344 0 3.61035 3.29395 5.28125 6.53809 5.28125 2.97216 0 5.80664-1.26465 7.06884-1.71973 1.26612-0.45117 3.03614-0.86523 4.14112-0.86523 1.98047 0 2.70117 0.14843 3.58056 0.3584 0.0161-0.0947 0.0361-0.27442 0.0361-0.42872 0-0.48339-0.0664-0.80566-0.14942-1.10742" fill="#ffffff"/>
  <g fill="#efcf4d">
   <path id="path40" d="m206.379 108.556c0.67187 0 1.18798 0.0283 1.67773 0.17286-0.52783-1.39942-1.43262-2.24219-2.98096-2.24219-1.5039 0-2.36425 0.60254-2.83642 1.36133 0.9624 0.53418 1.46972 0.9541 1.86426 1.60449 0.63427-0.65039 1.49951-0.89649 2.27539-0.89649"/>
   <path id="path42" d="m200.455 109.634c-0.60254-0.99414-1.49414-1.39746-2.64404-1.39746-1.72413 0-2.78907 1.47265-2.96094 2.90722 0.80127 0.0381 1.29687 0.20411 1.79834 0.51368 0.65088-0.88477 2.09228-2.12696 3.80664-2.02344"/>
   <path id="path44" d="m193.947 118.899c-1.31397 0.26465-2.48487 1.58497-2.48487 3.36524 0 1.42871 0.76661 2.55273 1.33008 3.22851 0.32129-1.36523 1.11963-2.20507 1.84522-2.54296-0.69922-0.94532-1.18604-2.38184-0.69043-4.05079"/>
   <path id="path46" d="m199.565 128.218c-0.61328 0.51758-0.95068 0.84961-2.46973 1.16016 0.32666 0.59961 1.45752 1.96094 2.93946 1.96094 1.13183 0 2.40088-0.59668 3.17773-1.77637-1.97412 0.0215-2.90918-0.68164-3.64746-1.34473"/>
   <path id="path48" d="m191.688 167.146c-1.01416 0.36914-1.50537 1.29101-1.50537 2.23339 0 1.27637 0.71191 2.29004 1.77637 3.22168 0.3374-1.37304 1.11474-1.96679 1.58496-2.24414 0.33398-0.97754-0.28516-2.97168-1.85596-3.21093"/>
   <path id="path50" d="m195.202 157.561c-0.26709-0.0635-0.70068-0.15333-1.22363-0.15333-1.83496 0-2.93653 1.2627-3.53907 2.67872 1.00293-0.0479 1.70899 0.10253 2.26075 0.39355 0.10254-0.85742 0.9209-2.21191 2.50195-2.91894"/>
   <path id="path52" d="m198.29 173.987c-1.05322 0-1.40039 0.89941-1.5293 1.20214-0.14844 1.32032 1.28028 2.75782 2.8291 2.68653-0.0752-0.8252 0.0825-1.72559 0.32276-2.34668-0.30664-0.91699-0.86475-1.54199-1.62256-1.54199"/>
   <path id="path54" d="m207.208 170.143c-1.44727 0-1.33985 1.47265-1.29346 2.32422 0.17871 0.53125 0.69092 1.32226 1.16504 1.86035 1.47461-1.04395 1.70508-1.65235 1.91357-2.57129-0.32763-1.0625-0.93652-1.61328-1.78515-1.61328"/>
   <path id="path56" d="m215.783 199.59c-0.25732-0.2041-0.70703-0.44922-1.53417-0.44922-1.81153 0-2.78418 1.58203-2.917 3.1084 0.53662-0.0928 1.53028-0.11133 2.08789 0.12695-0.0103-1.41406 0.99707-2.25781 2.36328-2.78613"/>
   <path id="path58" d="m208.785 205.605c-1.00196 0.17578-2.59961 1.32324-2.59961 3.27148 0 1.43458 0.64014 2.48926 1.25928 3.24512 0.47412-1.19922 1.10986-1.63476 1.67773-2.04394-0.92773-1.31055-1.0918-3.30469-0.3374-4.47266"/>
   <path id="path60" d="m215.886 214.056c-1.30615 0-1.95996 1.07617-2.09375 1.57617-0.0268 1.18164 1.13623 2.40918 2.04248 2.90235 0.68897-0.4961 1.25684-1.43848 1.48731-1.93848 0.34863-0.90039 0.0312-2.54004-1.43604-2.54004"/>
   <path id="path62" d="m228.44 212.246c-1.1206 0-1.83838 1.37109-1.84131 1.36035 0.6084 0.61621 0.89405 1.17871 0.41846 2.50195 1.60059-0.0459 3.34131-1.25293 3.17725-2.50195 0 0-0.62403-1.36035-1.7544-1.36035"/>
   <path id="path64" d="m257.511 215.699c-0.23828-0.14844-0.75-0.25977-1.24219-0.25977-2.39453 0-3.44726 2.11719-2.91211 4.91993 0.60547-0.75098 1.23633-1.0166 1.89063-1.17481-0.16406-1.32129 0.91992-2.95703 2.26367-3.48535"/>
   <path id="path66" d="m256.14 226.088c-0.30078 0-0.72461 0.0566-1.14844 0.21582-0.56836 0.45996-1.01563 1.10059-1.01563 2.53906 0 1.13574 0.60547 2.19727 1.30664 2.51367 0.9375-1.4873 1.9375-2.18359 2.44532-2.4541 0.48047-1.34082-0.10157-2.81445-1.58789-2.81445"/>
   <path id="path68" d="m266.257 228.509c-0.77343 0-1.35546 0.53711-1.89062 1.45898 0.57617 1.24024 0.97266 2.46485 1.02734 3.62695 1.39258-0.86914 2.22852-2.03613 2.47852-3.22949-0.0859-0.86914-0.59375-1.85644-1.61524-1.85644"/>
   <path id="path70" d="m276.623 224.182c0.55273 0.26074 1.04101 0.66504 1.64062 2.07129 0.85938-0.14356 2.36719-1.56446 2.36719-2.89063 0-0.27832-0.11328-0.95996-0.50976-1.45898-0.43946-0.34473-1.20118-0.50586-1.71485-0.50586-0.66211 0-1.92187 1.02148-1.7832 2.78418"/>
  </g>
  <path id="path72" d="m296.398 127.042c5.88086-2.39844 8.67578-7.24414 8.67578-12.4199 0-0.41504-0.01-0.80078-0.0215-1.1748h-4.21289c-1.64258 1.36816-3.57618 2.3789-5.41993 2.99414 0.42188-0.79688 0.75196-1.81446 0.78711-2.99414 0.0176-0.62598-0.0488-1.30176-0.23828-2.02149-0.73437 0.37109-2.47656 1.45215-3.49023 1.91797-0.0645 0.0361-0.13672 0.0684-0.21875 0.10352-2.33008 1.06835-8.50586 3.84179-7.39453 12.4121-0.40821 0.35547-0.85157 0.74903-1.32227 1.18262h12.8555" fill="#e10000"/>
  <path id="path74" d="m198.62 123.963c-0.0771 0.93066 0.28516 2.11621 1.0166 3.0791h18.2949c-1.26318-0.89453-2.23144-1.69824-2.62988-2.26758-3.44336-4.89062-6.36865-6.71484-6.32764-9.37695 9e-3 -0.55566 0.2041-1.23633 0.39405-1.95019h-4.53907c0.022 0.0732 0.0469 0.14843 0.062 0.21093 0.21435 0.80176 0.1123 1.93164-0.0249 2.81836-0.86963-0.9541-1.71972-2.01172-2.07324-3.02929h-5.97656c-2e-3 0.0166-2e-3 0.0332-2e-3 0.0488 0 1.32422 0.98681 1.83985 1.89306 2.42579 0.58838 0.38867 1.23682 0.85839 1.61475 2.24609-0.9917-0.5625-1.74902-0.75293-2.93994-0.75293-1.1919 0-2.83496 0.56543-2.83496 2.64453 0 2.6084 1.91797 3.61523 4.07324 3.90332" fill="#e10000"/>
  <g id="g82">
   <g id="g80" fill="#e10000">
    <g id="g78" fill="#e10000">
     <path id="path76" d="m277.726 122.584c-1.17382-1.14062-3.05273-3.50878-3.65234-5.58789-0.30273-1.05468-0.85352-2.48046-1.55469-3.54882h-33.9282c-0.24121 0.18457-0.45654 0.34277-0.60547 0.43554-0.33789 0.44629-0.42285 1.1836-0.42285 1.81739 0 1.87695 1.94775 3.49023 3.96777 3.49023 2.88135 0 3.89893-2.66602 3.73096-3.89355 1.56445-0.12598 6.00586 1.45214 6.00586 6.00292 0 2.83985-3.11523 3.14063-4.20459 3.14063-1.0957 0-1.9043-0.33594-3.11084-0.33594-1.20801 0-1.76465 0.42774-1.76465 1.23926 0 0.67871 0.47901 1.31055 1.17041 1.69824 0.43457 0.24707 0.95166 0.39356 1.48389 0.39356 0.54736 0 0.88476-0.17676 1.1665-0.39356 0.42432-0.32324 0.72754-0.72754 1.38086-0.72754 0.41553 0 1.01367 0.14649 1.38819 0.72754h25.8242c4e-3 -1.93652-0.17578-3.10644-0.44531-3.73242 1.36133-0.0752 2.51758-0.26367 3.57031-0.72559z" fill="#e10000"/>
    </g>
   </g>
  </g>
  <g fill="#e10000">
   <path id="path84" d="m242.195 119.776c-0.36767 0.11426-0.70556 0.10351-1.01074 0.0889 0.0503 0.15918 0.15234 0.38379 0.21436 0.46094 0 0 0.77685-0.19726 0.77685-0.20508 0.0151-0.0723 0.0195-0.24414 0.0195-0.34472"/>
   <path id="path86" d="m242.937 123.39c-0.1416-0.22461-0.23096-0.37598-0.28711-0.5752 0-4e-3 -0.65283 0.24805-0.65283 0.24121-0.0518 0.20899-0.1084 0.46289 0.0259 0.87696 0.2041-0.30078 0.46924-0.44824 0.91406-0.54297"/>
   <path id="path88" d="m290.808 140.061h-13.3203c-0.0137 0.29882-0.0234 0.60254-0.0234 0.91406 0 3.97363 2.50976 8.83594 5.5039 12.6792h3.93945c-1.39648-1.33985-2.32031-3.25635-2.32031-5.5376 0-4.67676 2.87305-6.65723 6.22071-8.05566"/>
   <path id="path90" d="m295.007 153.654c2.01563-2.50098 7.8711-2.33203 7.8711-6.51611-0.85352 1.26367-1.88867 1.84472-3.38086 1.84472-1.48242 0-3.44922-0.91113-5.41211-0.91113-3.66602 0-5.1543 2.58935-5.1543 3.8706 0 0.62598 2e-3 1.1875 0.0762 1.71192h6"/>
   <path id="path92" d="m211.75 146.906c1.42285 0.23535 3.48975-0.44824 4.00635-2.00977 1.3208 2.21582 1.42871 2.93067 1.46924 4.02735 0.85937-1.18164 0.77099-1.85449 1.62646-3.53125 0.97217-1.93262 2.43066-3.89063 4.14941-5.33203h-10.5703c0.39405 2.52343 0.0884 4.71875-0.68115 6.8457"/>
   <path id="path94" d="m219.256 146.317c-1.0586 2.44922-1.34522 3.75098-3.51026 4.67432 0.43653 1.08301 1.06934 1.96191 1.8169 2.66211h46.7334c-0.60547-1.22168-1.06836-3.07715-0.53907-4.51514 0.93164 0.75879 2.67188 1.31543 4.01563 1.02246-0.28906-3.12207 0.49805-5.8623 1.4043-7.06152 0.70507-0.93457 1.22851-2.04492 1.56836-3.03906h-46.3525c-2.13819 1.40332-4.04248 3.70312-5.13672 6.25683"/>
   <path id="path96" d="m301.376 179.557c3.87305-4.77832 2.4375-9.99121 2.4375-12.3906 0-0.16796 0.0117-0.32714 0.0274-0.49121h-4.97852c0.83008 1.2334 1.34766 2.64649 1.34766 4.3291 0 4.26954-2.20508 7.69239-5.57227 9.26368h10.0391c0.38086-0.40137 0.81445-0.81641 1.33203-1.24903-1.41016-0.80468-3.17578-0.5664-4.63282 0.53809"/>
   <path id="path98" d="m278.375 166.675h-40.04c5.73438 4.73633 11.5112 6.19336 18.7588 6.67383 6.24219 0.41602 9.87305 4.0918 10.4102 5.93067-0.97656-0.50586-2.19727-0.76661-3.75586-0.76661-1.48828 0-2.8711 0.66797-4.0293 1.75489h26.7383c-0.24804-0.15918-0.5039-0.32325-0.75586-0.52735 0.61328-0.65527 0.92969-1.69922 0.92969-2.96093 0-4.12012-3.52539-7.16211-8.25586-10.1045"/>
   <path id="path100" d="m210.652 168.95c-0.0317-0.91504-0.1792-1.29785-0.67579-1.73731 0.12647-0.14062 0.41358-0.34472 0.82422-0.53711h-18.0591c1.23682 0.61426 1.94287 2.38282 1.61035 3.53125 0.12305 0.33692 0.74268 0.67481 1.40186 0.4834-0.20459 0.85938-0.6958 2.68457 0.61035 3.75391 0.50537-0.95703 1.17627-1.28125 2.14258-1.28125 0.95996 0 1.79053 0.91894 2.02099 1.57617 0.63282-0.14356 1.34034-0.75195 1.34034-1.59668 0-1.68066 0.84375-2.80664 1.55957-2.84863 0.23047 1.02929 1.1206 1.36425 1.85205 1.59961-0.11817-1.83301 1.10595-2.41602 1.9082-2.41602 1.26953 0 1.81689 0.55274 2.29883 1.48438 0.73926-0.28125 1.20019-1.09278 1.16553-2.01172"/>
   <path id="path102" d="m234.439 167.88c0.54346-0.26758 0.92139-0.69922 1.18213-1.20508h-3.41211c0.77246 0.33301 1.47901 0.74121 2.22998 1.20508"/>
   <path id="path104" d="m222.418 166.675h-3.78614c0.8833 0.41797 1.69288 0.9668 2.60987 1.56348 0.48486-0.33691 0.94629-0.84668 1.17627-1.56348"/>
   <path id="path106" d="m226.352 169.35c0.65381-0.36817 1.60449-1.49414 1.86768-2.67481h-3.94971c0.68066 0.64258 1.33984 1.6416 2.08203 2.67481"/>
   <path id="path108" d="m262.554 177.764c1.37891-0.21191 2.55078-0.0781 3.00391 0.12598-1.93165-2.27149-5.95508-3.51758-8.84961-3.62207-0.01 0 0.0117-0.0215-0.0254 0.0205 3.46093 0.84864 4.9082 2.16602 5.87109 3.47559"/>
   <path id="path110" d="m261.468 178.042c-1.13281-1.40625-3.04492-2.43359-5.36133-3.01855-0.60156 0.68652-1.26953 1.26953-1.88867 1.26953-2.48828 0-4.12402-0.12891-6.40918-0.12891-5.06543 0-9.4541 1.60059-12.5713 4.1045h23.1895c0.90039-1.04102 1.94531-1.82911 3.04101-2.22657"/>
   <path id="path112" d="m287.349 196.564c-1.60156 0-2.98437 0.63282-3.6875 1.43458-2.38476 0-4.81836-2.05176-5.77148-4.71094h-20.9238c0.55273 1.80176 1.58008 3.61621 3.45312 5.63965 3.2461 3.48046 4.10352 3.90722 4.10352 7.31836 1.7832-0.51661 2.26367-1.39649 2.74609-2.56446 0.01 1.17871 0.25977 2.28321 0.69141 3.19824h3.71289c0.4707-0.59863 0.96094-1.05957 1.53516-1.42187 0.0195 0.48535 0.0117 0.95605-0.0312 1.42187h17.6133c0.22461-2.01953 0.90429-3.19824 0.90429-5.40429 0-2.70313-1.91601-4.91114-4.3457-4.91114"/>
   <path id="path114" d="m230.205 193.288c-0.16895 1.60058-0.56201 2.35449-1.44922 3.33496 0.60449 0.47168 1.53613 0.77832 2.32861 0.74609-1.33447 3.61231-7.46484 4.78223-8.94726 4.78223-2.07715 0-2.1333-1.95117-4.48242-1.95117-1.52442 0-3.44629 0.70117-3.44629 2.458 0 0.79883 0.1875 1.67481 0.49023 2.1709-0.84961-0.47265-1.80615-0.58398-2.60498-0.58398-1.2832 0-2.68994 1.08594-2.93652 2.63476h28.3135c0.5044-0.27148 0.96534-0.54199 1.36524-0.8164l0.4043 0.8164h2.28466c0.81397-0.62402 1.52539-1.39746 2.01319-2.15722 0.51172 0.69922 0.68945 1.3789 0.7876 2.15722h1.53857c2.36426-1.9082 4.37549-4.40429 4.37549-8.34277 0-3.28516-0.97217-4.0459-1.43262-5.24902h-18.602"/>
   <path id="path116" d="m257.712 221.822c-1.99023 1.04883-2.23242 2.11523-2.08594 3.58203 2.48438-0.5 3.50391 1.83105 3.04688 3.34765 1.53711 0.32618 2.65625-0.39062 3.44727-1.10156 0.24609 0.75293 0.95117 1.46973 1.79296 1.69629 0.53125-0.9209 1.35938-1.59082 2.37305-1.59082 1.02344 0 1.87109 0.39453 2.30078 1.81543 1.15039-0.25 2.52344-2.37988 1.84961-3.84863 1.17188-0.31836 2.3418-1.98926 2.39844-3.14453 0.78125 1.02441 1.80859 1.81543 2.91211 1.31152-0.11328-1.96387 1.54101-3.38477 2.64453-3.38477 0.64062 0 1.16797 0.0918 1.58203 0.30469 0.14258-0.24512 0.2461-0.61133 0.2461-1.01172h-24.043c0.18164 0.93457 0.83398 1.61621 1.53515 2.02442"/>
   <path id="path118" d="m250.314 120.002c-0.61279-0.0898-1.33398-0.16211-3.00097-0.16211-2.06299 0-3.9458 0.66114-5.37891 1.08008-1.43652 0.41992-2.23975 0.74317-4.26025 0.74317-3.95655 0-5.5-1.97657-5.5-3.56934 0-1.04688 0.36279-1.8877 1.0581-2.75293-0.32666-0.27051-0.77637-0.38086-1.20801-0.38086-1.36084 0-2.92529 1.1709-2.92529 3.52344 0 3.61035 3.29395 5.28125 6.53809 5.28125 2.97216 0 5.80664-1.26465 7.06884-1.71973 1.26612-0.45117 3.03614-0.86523 4.14112-0.86523 1.98047 0 2.70117 0.14843 3.58056 0.3584 0.0161-0.0947 0.0361-0.27442 0.0361-0.42872 0-0.48339-0.0664-0.80566-0.14942-1.10742"/>
  </g>
  <path id="path120" d="m182.253 80.7695c0-0.603515 0.0767-1.08398 1.02295-1.33496 0.63428-0.167968 1.42871 0.146485 2.43164 0.550782 1.24658 0.501953 2.80225 1.13086 4.24023 0.748047 0.58887-0.158203 0.8794-0.294922 0.97657-0.462891 0.0972-0.160156 0.0664-0.486328-0.0913-1.10938-0.13428-0.524414-0.62403-1.67676-1.42285-2.70312l-0.16358-0.203125 0.1333-0.227539c1.04297-1.80957 1.44727-4.33008 0.99268-6.12891-0.16358-0.625977-0.32764-1.20508-0.52783-1.31836-0.16358-0.09961-0.6045 0.0049-1.03809 0.118164-1.15185 0.310547-2.03125 1.24316-2.44043 1.94531l-0.0908 0.171875c-0.3501 0.608398-0.77393 1.36719-1.74072 1.625-1.06934 0.282226-1.7544-0.368164-1.93946-1.0918-0.21435-0.836914 0.1587-1.63086 0.51661-2.40039 0.33349-0.705078 0.64111-1.36816 0.48095-1.98926-0.0562-0.211914-0.0967-0.259765-0.11328-0.269531-0.0234-0.0166-0.14111-0.05957-0.58594 0.0625-0.40039 0.104492-0.99853 0.322266-1.37793 0.539063l-0.60791 0.351562 0.0518-0.71289c0.0664-0.734375 0.24512-2.96973-0.0679-3.23242-0.0298-0.02832-0.14258-0.03613-0.48047 0.05371-0.20361 0.0498-0.70117 0.287109-1.11963 0.617187l-0.34863 0.271485-0.20898-0.391602c-0.36817-0.692383-1.26807-1.7666-2.41993-1.89648 0.23438 0.921875 4.07862 15.9023 4.07862 15.9023v0.04785c0 4.31348 0.85742 5.87793 4.19433 7.60547l1.55909 0.771484c0.93554-0.40918 1.6167-0.670898 2.14843-0.868164-3.90283-1.49414-6.0415-3.26465-6.0415-5.04102" fill="#efcf4d"/>
  <path id="path122" d="m321.261 64.248-0.20898 0.391602-0.33789-0.271485c-0.42188-0.330078-0.91797-0.567383-1.125-0.617187-0.34375-0.08984-0.44727-0.08203-0.48633-0.05371-0.30274 0.262695-0.12696 2.49805-0.0664 3.23242l0.0527 0.71289-0.61329-0.351562c-0.36328-0.216797-0.97656-0.434571-1.375-0.539063-0.43945-0.12207-0.55078-0.0791-0.58593-0.0625-0.0117 0.0098-0.0547 0.05762-0.10938 0.269531-0.1582 0.621094 0.15039 1.28418 0.47461 1.98926 0.36719 0.769532 0.74024 1.56348 0.52539 2.40039-0.1875 0.723633-0.86914 1.37402-1.94336 1.0918-0.96484-0.257813-1.39648-1.0166-1.73633-1.62793l-0.0976-0.168945c-0.4043-0.702149-1.28321-1.63477-2.44336-1.94531-0.43164-0.113281-0.86914-0.217773-1.03516-0.118164-0.20117 0.113281-0.36133 0.692383-0.51953 1.31836-0.45898 1.79883-0.0469 4.31934 0.98438 6.12891l0.13281 0.227539-0.16016 0.203125c-0.79883 1.02637-1.28515 2.17871-1.41992 2.70312-0.30273 1.16894-0.23437 1.27344 0.88281 1.57227 1.43555 0.382812 3-0.246094 4.24219-0.748047 1.00391-0.404297 1.79297-0.71875 2.42578-0.550782 0.94922 0.250977 1.02539 0.731446 1.02539 1.33496 0 1.87988-2.39453 3.75098-6.74804 5.29492-0.10938 0.04981-1.90235 0.614258-3.66407 1.34863-2.42968 1.00977-4.15039 2.05371-5.14258 3.24219l-0.28125 0.342773-0.28906-0.342773c-0.93359-1.13184-2.42187-2.09668-4.80078-3.09082-0.65625 0.309571-1.40234 0.649414-2.66211 1.21387 1.48242 0.682618 2.36133 1.24316 2.36133 2.08496 0 1.25488-1.08789 1.88672-3.22656 1.88672-2.13672 0-3.21289-0.631836-3.21289-1.88672 0-0.984375 1.24023-1.62598 2.99414-2.43555 0 0 2.15039-0.958984 2.81836-1.30469 0.66601-0.344727 1.86914-0.984375 1.86914-0.984375 1.07422-0.621094 2.39453-1.47559 3.99804-3.11426l0.26756-0.274415 0.25977 0.280273c1.50195 1.5752 2.86328 2.4541 4.00976 3.1084l0.83594 0.440429c0.92188-0.390625 1.60156-0.612304 2.12891-0.790039-3.35547-1.38965-6.16797-3.41504-7.24805-5.22363-1.125 1.82324-4.00586 3.88379-7.40039 5.2793-0.85742 0.399415-2.90234 1.08496-4.49609 1.7832-2.12696 0.916015-4.17774 2.35156-5.23438 3.68164l-0.29297 0.362305-0.28906-0.369141c-1.06445-1.34473-2.74609-2.56445-4.9707-3.62402-0.58985 0.288086-1.21289 0.592773-2.34961 1.09473 1.39648 0.673829 2.26562 1.25391 2.26562 2.08984 0 1.26367-1.11523 1.90332-3.30859 1.90332-2.19922 0-3.31445-0.639649-3.31445-1.90332 0-1.01074 1.23046-1.59668 3.24023-2.47656 0 0 1.89844-0.827149 2.56641-1.14746 0.66796-0.325195 1.8789-0.995117 1.8789-0.995117 1.06836-0.619141 2.65235-1.625 3.97852-3.2002l0.28125-0.333984 0.28125 0.333984c1.32422 1.5752 2.91601 2.58106 3.99023 3.2002l1.01758 0.534179c1.03516-0.445312 1.78711-0.708984 2.36719-0.916015-3.98828-1.50391-6.17383-3.29785-6.17383-5.09277 0-0.738281 0.48242-1.48242 1.40625-1.48242 0.6543 0 1.33984 0.50879 2.20898 1.16016 1.08985 0.80957 2.44336 1.81738 3.91993 1.81738 1.16796 0 1.24804-0.09082 1.24804-1.29492 0-0.539063-0.18945-1.78125-0.70898-2.98633l-0.10352-0.236329 0.17969-0.182617c1.45508-1.48926 2.47656-3.81836 2.47656-5.6748 0-1.56543 0-1.56543-1.21289-1.56543-1.19336 0-2.27539 0.673828-2.84179 1.25391l-0.13868 0.135742c-0.47851 0.501953-1.08593 1.13086-2.08203 1.13086-1.10547 0-1.60937-0.808594-1.60937-1.5625 0-0.858399 0.55859-1.53516 1.09765-2.18945 0.49414-0.590821 0.95508-1.15918 0.95508-1.79395 0-0.331054 0-0.384765-0.61719-0.384765-0.42382 0-1.06445 0.05762-1.47461 0.167969l-0.67578 0.18164 0.22852-0.674804c0.24414-0.689454 0.9707-2.80762 0.73047-3.14551-0.0215-0.03516-0.125-0.07324-0.47852-0.07324-0.20898 0-0.74804 0.09473-1.23437 0.30957l-0.4043 0.174805-0.10352-0.428711c-0.22656-0.911133-1.19335-2.14941-2.24804-2.55664-1.05664 0.407227-2.01563 1.64551-2.24024 2.55664l-0.10547 0.428711-0.40234-0.174805c-0.49219-0.214844-1.02734-0.30957-1.23633-0.30957-0.35156 0-0.45703 0.03809-0.48047 0.07324-0.23242 0.33789 0.49024 2.45605 0.72852 3.14551l0.23242 0.674804-0.67383-0.18164c-0.41992-0.110352-1.05664-0.167969-1.47461-0.167969-0.62695 0-0.62695 0.05371-0.62695 0.384765 0 0.634766 0.46875 1.20312 0.96484 1.79395 0.53516 0.654297 1.0918 1.33105 1.0918 2.18945 0 0.753906-0.5039 1.5625-1.60547 1.5625-1.00195 0-1.60351-0.628906-2.08593-1.13086l-0.13672-0.135742c-0.5586-0.580078-1.64258-1.25391-2.8418-1.25391-1.20508 0-1.20508 0-1.20508 1.56543 0 1.85644 1.01172 4.18555 2.4707 5.6748l0.17579 0.182617-0.10547 0.236329c-0.51563 1.20508-0.70703 2.44726-0.70703 2.98633 0 1.2041 0.082 1.29492 1.25 1.29492 1.48242 0 2.83398-1.00781 3.91796-1.81738 0.86915-0.651367 1.55469-1.16016 2.20899-1.16016 0.92773 0 1.40625 0.744141 1.40625 1.48242 0 1.84961-2.30859 3.69434-6.51953 5.21973-0.71289 0.28418-2.47656 0.883789-3.92774 1.44336-1.75195 0.681641-4.05078 2.02441-5.05273 3.19043l-0.28125 0.334961-0.27344-0.334961c-0.95508-1.12598-2.44726-2.08496-4.83789-3.08496-0.66016 0.314453-1.38672 0.639649-2.66601 1.21484 1.51562 0.694336 2.41796 1.25391 2.41796 2.11035 0 1.29492-1.04492 1.89844-3.29687 1.89844-2.25 0-3.29883-0.603516-3.29883-1.89844 0-1.03027 1.26172-1.6748 3.05078-2.48047 0 0 2.04102-0.874024 2.82031-1.25977 0.78516-0.384765 1.80665-0.984375 1.80665-0.984375 1.08398-0.621094 2.40039-1.47559 4.00585-3.11426l0.26172-0.264648 0.26172 0.264648c1.36719 1.35547 2.57031 2.28711 4.00977 3.11426l0.86914 0.462891c0.93164-0.399414 1.61133-0.612305 2.14453-0.797852-3.37695-1.38281-6.20508-3.41992-7.29102-5.2334-1.1289 1.83984-3.99218 3.89844-7.35742 5.26367-0.34179 0.158203-2.78125 0.96875-4.54101 1.72559-2.43555 1.03613-4.22852 2.23144-5.24317 3.54102l-0.28369 0.365235-0.29101-0.348633c-1.07227-1.27246-2.70362-2.43262-4.82862-3.44922-0.57275 0.286133-1.22851 0.595703-2.3584 1.09668 1.40674 0.673828 2.28614 1.2627 2.28614 2.09863 0 0.865235-0.57032 1.90332-3.31055 1.90332-2.73535 0-3.30811-1.03809-3.30811-1.90332 0-1.01074 1.22803-1.59668 3.23243-2.47656 0 0 1.82177-0.802734 2.67675-1.19824 0.85498-0.398438 1.77051-0.944336 1.77051-0.944336 1.07422-0.619141 2.65576-1.625 3.97998-3.2002l0.28662-0.333985 0.28125 0.333985c1.32471 1.5752 2.90479 2.58105 3.98291 3.2002l0.88868 0.49414c1.04101-0.447265 1.81835-0.71875 2.39257-0.917968-3.92382-1.49512-6.07226-3.26856-6.07226-5.05078 0-0.738281 0.48828-1.48242 1.41601-1.48242 0.65625 0 1.3418 0.50879 2.21094 1.16016 1.08203 0.80957 2.43555 1.81738 3.91211 1.81738 1.16602 0 1.24805-0.09082 1.24805-1.29492 0-0.539063-0.1875-1.78125-0.70508-2.98633l-0.0996-0.236328 0.17578-0.182618c1.45899-1.48926 2.47266-3.81836 2.47266-5.6748 0-1.56543 0-1.56543-1.20703-1.56543-1.19727 0-2.28321 0.673828-2.84571 1.25391l-0.13281 0.135742c-0.48633 0.501954-1.08984 1.13086-2.09375 1.13086-1.09961 0-1.60156-0.808594-1.60156-1.5625 0-0.858399 0.55859-1.53516 1.0957-2.18945 0.49219-0.590821 0.95117-1.15918 0.95117-1.79395 0-0.331054 0-0.384765-0.61523-0.384765-0.41797 0-1.05664 0.05762-1.4707 0.167969l-0.67579 0.18164 0.22852-0.674804c0.23633-0.689454 0.95898-2.80762 0.72656-3.14551-0.0195-0.03516-0.12304-0.07324-0.47461-0.07324-0.21679 0-0.74804 0.09473-1.24218 0.30957l-0.39454 0.174805-0.10742-0.428711c-0.22656-0.911133-1.1914-2.14941-2.24463-2.55664-1.05322 0.407227-2.0205 1.64551-2.24609 2.55664l-0.10693 0.428711-0.39942-0.174805c-0.48779-0.214844-1.0293-0.30957-1.24316-0.30957-0.34815 0-0.45069 0.03809-0.47119 0.07324-0.23633 0.33789 0.4873 2.45605 0.72558 3.14551l0.23682 0.674804-0.68164-0.18164c-0.41309-0.110352-1.05274-0.167969-1.46778-0.167969-0.62353 0-0.62353 0.05371-0.62353 0.384765 0 0.634766 0.46435 1.20312 0.94971 1.79395 0.54345 0.654297 1.10107 1.33105 1.10107 2.18945 0 0.753906-0.50098 1.5625-1.60449 1.5625-1.00537 0-1.60254-0.628906-2.09424-1.13086l-0.12842-0.135742c-0.56787-0.580078-1.65234-1.25391-2.83984-1.25391-1.2124 0-1.2124 0-1.2124 1.56543 0 1.85644 1.01953 4.18555 2.4707 5.6748l0.17969 0.182618-0.10205 0.236328c-0.51661 1.20508-0.70655 2.44726-0.70655 2.98633 0 1.2041 0.0835 1.29492 1.24366 1.29492 1.48388 0 2.82958-1.00781 3.91943-1.81738 0.87012-0.651367 1.56006-1.16016 2.21533-1.16016 0.92139 0 1.40625 0.744141 1.40625 1.48242 0 1.94531-2.55273 3.88281-7.1875 5.45312 0 0-2.07715 0.711915-3.25879 1.20996-2.36963 0.990235-4.11426 2.05469-5.10742 3.25488l-0.29004 0.344727-0.28271-0.344727c-0.93653-1.15527-2.44483-2.12891-4.85938-3.13965-0.62988 0.315429-1.29883 0.644531-2.62109 1.23535 1.47949 0.683594 2.35547 1.24414 2.35547 2.08008 0 1.27344-1.06348 1.89258-3.24463 1.89258-2.18408 0-3.2417-0.61914-3.2417-1.89258 0-1.02441 1.24219-1.66504 2.9917-2.4541 0 0 2.00439-0.881836 2.8833-1.2998 0.87695-0.425781 1.80322-0.970703 1.80322-0.970703 1.07764-0.621094 2.39942-1.47559 3.99902-3.11426l0.26807-0.264648 0.26025 0.264648c1.3711 1.35547 2.57178 2.28711 4.00489 3.11426l0.82519 0.46582c0.92627-0.389648 1.62647-0.625 2.16797-0.810547-3.37109-1.38476-6.18506-3.41504-7.26416-5.22852-1.14062 1.85449-4.01172 3.91309-7.39355 5.28516-1.1045 0.456055-2.30664 0.797852-4.5625 1.72852-2.26172 0.938476-4.19434 2.23438-5.20703 3.54785l-0.27637 0.361328-0.30176-0.346679c-1.03955-1.23535-2.7124-2.39356-4.94189-3.44043-0.57862 0.282227-1.22461 0.586914-2.34864 1.0918 1.37012 0.664062 2.23535 1.23828 2.23535 2.07031 0 1.29492-1.04443 1.89844-3.2788 1.89844-2.23047 0-3.27442-0.603516-3.27442-1.89844 0-0.989257 1.20752-1.58496 3.20166-2.45996 0 0 1.99072-0.859375 2.55908-1.13086 0.56788-0.273437 1.91846-1.02832 1.91846-1.02832 1.0752-0.619141 2.65576-1.625 3.98486-3.2002l0.28174-0.333984 0.28125 0.333984c1.32373 1.5752 2.90479 2.58106 3.98438 3.2002l0.93261 0.507812c1.0376-0.450195 1.81397-0.71289 2.39844-0.912109-3.95996-1.49609-6.11914-3.28027-6.11914-5.07031 0-0.738281 0.48682-1.48242 1.41309-1.48242 0.64844 0 1.34033 0.508789 2.20947 1.16016 1.08398 0.80957 2.42969 1.81738 3.91309 1.81738 1.17285 0 1.24902-0.09082 1.24902-1.29492 0-0.539063-0.18994-1.78125-0.70703-2.98633l-0.10694-0.236328 0.18506-0.182617c1.45801-1.48926 2.47022-3.81836 2.47022-5.6748 0-1.56543 0-1.56543-1.21387-1.56543-1.18994 0-2.27441 0.673828-2.83789 1.25391l-0.13428 0.135742c-0.48486 0.501953-1.08691 1.13086-2.08642 1.13086-1.10938 0-1.60596-0.808594-1.60596-1.5625 0-0.858399 0.55762-1.53516 1.09424-2.18945 0.4873-0.590821 0.95703-1.15918 0.95703-1.79395 0-0.331054 0-0.384765-0.62256-0.384765-0.41504 0-1.05469 0.05762-1.46973 0.167969l-0.67529 0.18164 0.22852-0.674805c0.23633-0.689453 0.95703-2.80762 0.729-3.14551-0.0215-0.03516-0.12305-0.07324-0.47607-0.07324-0.21533 0-0.75391 0.09473-1.24366 0.309571l-0.39355 0.174804-0.10742-0.42871c-0.22998-0.911133-1.19238-2.14942-2.24561-2.55664-1.0542 0.407227-2.01513 1.64551-2.2417 2.55664l-0.11035 0.42871-0.40039-0.174804c-0.48779-0.214844-1.02344-0.309571-1.2334-0.309571-0.35791 0-0.46093 0.03809-0.4873 0.07324-0.23047 0.33789 0.49609 2.45605 0.73779 3.14551l0.23047 0.674805-0.6748-0.18164c-0.41846-0.110352-1.05958-0.167969-1.47364-0.167969-0.625 0-0.625 0.05371-0.625 0.384765 0 0.634766 0.46533 1.20312 0.95801 1.79395 0.53662 0.654297 1.1001 1.33105 1.1001 2.18945 0 0.753906-0.50733 1.5625-1.61084 1.5625-1 0-1.60303-0.628907-2.08399-1.13086l-0.13818-0.135742c-0.56787-0.580078-1.64697-1.25391-2.83984-1.25391-1.21192 0-1.21192 0-1.21192 1.56543 0 1.85644 1.01807 4.18555 2.47168 5.6748l0.18408 0.182617-0.10742 0.236328c-0.51709 1.20508-0.70752 2.44727-0.70752 2.98633 0 1.2041 0.083 1.29492 1.24951 1.29492 1.47998 0 2.82959-1.00781 3.91553-1.81738 0.86768-0.651368 1.55762-1.16016 2.21289-1.16016 0.92188 0 1.40674 0.744141 1.40674 1.48242 0 1.84961-2.30225 3.68945-6.51172 5.21973-0.70996 0.280273-1.46875 0.458984-3.37109 1.2041l-0.60596 0.25586c-2.43359 1.01562-4.02392 2.02344-5.00781 3.17383l-0.28174 0.330078-0.28418-0.334961c-0.96191-1.1416-2.48144-2.10547-4.89746-3.11523-0.60352 0.287109-1.29492 0.606445-2.52783 1.14551 1.5122 0.770507 2.36963 1.42285 2.36963 2.21484 0 0.913086-1.07032 1.89844-3.42237 1.89844-2.40966 0-3.26416-0.979492-3.26416-1.89844 0-1.14062 1.27295-1.77539 3.21875-2.61426 0 0 2.21924-0.936524 2.69483-1.16602 0.47705-0.230469 1.7666-0.944336 1.7666-0.944336 1.13672-0.654297 2.49463-1.5332 3.99463-3.1084l0.26074-0.280274 0.27051 0.274414c1.60303 1.63867 2.9209 2.49316 4 3.11426l0.9331 0.509765c0.93116-0.398437 1.58985-0.65039 2.1333-0.83789-3.35742-1.39551-6.19482-3.43652-7.3208-5.24512-1.13086 1.89746-4.17041 4.04004-7.74658 5.42383-0.17676 0.07031-2.2915 0.813476-3.92822 1.47949-2.46631 1.11328-3.42774 2.21875-3.42774 3.95312 0 2.2666 1.771 3.48828 3.4375 3.48828h127.352c1.66797 0 3.4414-1.22168 3.4414-3.48828 0-1.69922-0.92187-2.79883-3.28125-3.88379-0.58008 0.277344-1.26758 0.580078-2.30859 1.05371 1.49609 0.686523 2.44726 1.28711 2.44726 2.27148 0 1.29492-1.03906 1.89844-3.26953 1.89844-2.27539 0-3.42773-0.641602-3.42773-1.89844 0-0.920898 1.16406-1.65332 3.17187-2.60938 0 0 2.36133-1.09375 2.92188-1.35547 0.5625-0.265625 2.03906-0.99121 2.03906-0.99121 3.3418-1.72754 4.20703-3.29199 4.20703-7.60547v-0.04785s3.83008-14.9805 4.06641-15.9023c-1.15039 0.129883-2.04297 1.2041-2.41797 1.89648" fill="#efcf4d"/>
  <g fill="#00529f">
   <path id="path124" d="m196.107 78.4111c0 1.05371 0.83887 1.91309 1.86768 1.91309 1.0332 0 1.87158-0.859375 1.87158-1.91309 0-1.05176-0.83838-1.9043-1.87158-1.9043-1.02881 0-1.86768 0.852539-1.86768 1.9043"/>
   <path id="path126" d="m230.854 78.4111c0 1.05371 0.83837 1.91309 1.87353 1.91309 1.02734 0 1.86572-0.859375 1.86572-1.91309 0-1.05176-0.83838-1.9043-1.86572-1.9043-1.03516 0-1.87353 0.852539-1.87353 1.9043"/>
   <path id="path128" d="m265.421 78.4111c0 1.05371 0.84375 1.91309 1.87695 1.91309s1.87109-0.859375 1.87109-1.91309c0-1.05176-0.83789-1.9043-1.87109-1.9043s-1.87695 0.852539-1.87695 1.9043"/>
   <path id="path130" d="m300.154 78.4111c0 1.05371 0.83398 1.91309 1.86719 1.91309 1.0332 0 1.87695-0.859375 1.87695-1.91309 0-1.05176-0.84375-1.9043-1.87695-1.9043-1.03321 0-1.86719 0.852539-1.86719 1.9043"/>
  </g>
 </g>
</svg>
